<?xml version="1.0" encoding="utf-8"?><svg xmlns="http://www.w3.org/2000/svg" xmlns:xlink="http://www.w3.org/1999/xlink"><symbol viewBox="0 0 730 400" id="border" xmlns="http://www.w3.org/2000/svg"><path clip-rule="evenodd" d="M321 0H16C7.164 0 0 7.163 0 16v368c0 8.836 7.164 16 16 16h207v-4H16c-6.627 0-12-5.373-12-12V16C4 9.373 9.373 4 16 4h305V0zm88 4h305c6.627 0 12 5.373 12 12v368c0 6.627-5.373 12-12 12H506v4h208c8.836 0 16-7.164 16-16V16c0-8.837-7.164-16-16-16H409v4z"/></symbol><symbol viewBox="0 0 34 34" id="close" xmlns="http://www.w3.org/2000/svg"><path opacity=".5" fill-rule="evenodd" clip-rule="evenodd" d="M8.485 8.485a1 1 0 0 0 0 1.415l7.072 7.07-7.072 7.072A1 1 0 1 0 9.9 25.456l7.072-7.071 7.07 7.07a1 1 0 1 0 1.415-1.413l-7.071-7.071 7.07-7.071a1 1 0 0 0-1.415-1.415l-7.07 7.071-7.072-7.07a1 1 0 0 0-1.414 0z"/></symbol><symbol viewBox="0 0 16 14" id="days" xmlns="http://www.w3.org/2000/svg"><g opacity=".5"><path fill-rule="evenodd" clip-rule="evenodd" d="M14 7H2v5h12V7zM2 2a2 2 0 0 0-2 2v8a2 2 0 0 0 2 2h12a2 2 0 0 0 2-2V4a2 2 0 0 0-2-2H2z"/><path d="M11 1a1 1 0 1 1 2 0v3a1 1 0 1 1-2 0V1zM3 1a1 1 0 0 1 2 0v3a1 1 0 0 1-2 0V1z"/></g></symbol><symbol viewBox="0 0 32 32" id="excerpt" xmlns="http://www.w3.org/2000/svg"><path fill-rule="evenodd" clip-rule="evenodd" d="M16 32c8.837 0 16-7.163 16-16S24.837 0 16 0 0 7.163 0 16s7.163 16 16 16zm.958-17.612c-.338.762-.507 1.673-.507 2.734 0 1.035.296 1.946.887 2.735.592.762 1.423 1.143 2.493 1.143.958 0 1.718-.3 2.282-.898.591-.626.887-1.347.887-2.163 0-.817-.282-1.524-.845-2.123a2.725 2.725 0 0 0-2.113-.938 2.48 2.48 0 0 0-.465.04 4.168 4.168 0 0 0-.295.082 4.168 4.168 0 0 0-.296.082c.113-.817.479-1.456 1.098-1.919.648-.49 1.338-.734 2.07-.734V11a6.28 6.28 0 0 0-2.07.367 4.637 4.637 0 0 0-1.816 1.102c-.536.49-.972 1.13-1.31 1.919zm-8.451 0C8.169 15.15 8 16.06 8 17.122c0 1.035.296 1.946.887 2.735C9.48 20.62 10.31 21 11.38 21c.958 0 1.719-.3 2.282-.898.591-.626.887-1.347.887-2.163 0-.817-.281-1.524-.845-2.123a2.725 2.725 0 0 0-2.113-.938c-.168 0-.323.013-.464.04a4.168 4.168 0 0 0-.296.082 4.168 4.168 0 0 0-.296.082c.113-.817.48-1.456 1.099-1.919.648-.49 1.338-.734 2.07-.734V11a6.28 6.28 0 0 0-2.07.367 4.637 4.637 0 0 0-1.817 1.102c-.535.49-.972 1.13-1.31 1.919z"/></symbol><symbol viewBox="0 0 12 23" id="fb" xmlns="http://www.w3.org/2000/svg"><path fill-rule="evenodd" clip-rule="evenodd" d="M9.6 3.858H12V.148c-.3 0-.75 0-1.05-.148H8.7C7.65 0 6.45.297 5.55.89c-1.05.89-1.65 1.93-1.8 3.116-.15.594-.15 1.04-.15 1.633v2.819H0v4.155h3.6V23h4.35V12.613h3.6c0-1.484.3-2.82.45-4.155H7.95V5.49c0-1.187.75-1.632 1.65-1.632z"/></symbol><symbol viewBox="0 0 12 12" id="fb-fill" xmlns="http://www.w3.org/2000/svg"><path opacity=".3" d="M11.337 0H.663A.663.663 0 0 0 0 .663v10.674A.663.663 0 0 0 .663 12h5.748V7.368H4.842V5.543h1.56V4.211c0-1.552.945-2.396 2.329-2.396.47.001.939.028 1.406.08v1.619H9.18c-.752 0-.897.355-.897.88v1.158h1.8L9.85 7.368H8.284V12h3.053a.664.664 0 0 0 .663-.663V.663A.663.663 0 0 0 11.337 0z"/></symbol><symbol viewBox="0 0 22 22" id="inst" xmlns="http://www.w3.org/2000/svg"><path fill-rule="evenodd" clip-rule="evenodd" d="M1.24 2.347C0 3.963 0 6.31 0 11c0 4.691 0 7.037 1.24 8.653a6 6 0 0 0 1.108 1.107C3.963 22 6.309 22 11 22c4.69 0 7.037 0 8.652-1.24a6.018 6.018 0 0 0 1.108-1.107C22 18.037 22 15.69 22 11c0-4.691 0-7.037-1.24-8.653a6 6 0 0 0-1.108-1.107C18.037 0 15.691 0 11 0 6.31 0 3.963 0 2.348 1.24A5.979 5.979 0 0 0 1.24 2.347zM11 17a6 6 0 1 0 0-12 6 6 0 0 0 0 12zm4-6a4 4 0 1 1-8 0 4 4 0 0 1 8 0zm2.5-5a1.5 1.5 0 1 0 0-3 1.5 1.5 0 0 0 0 3z"/></symbol><symbol viewBox="0 0 78 89" id="lock" xmlns="http://www.w3.org/2000/svg"><path fill-rule="evenodd" clip-rule="evenodd" d="M22.92 28.08v6.746h-12V28.08C10.92 12.572 23.492 0 39 0s28.08 12.572 28.08 28.08v6.746h-12V28.08C55.08 19.2 47.88 12 39 12c-8.88 0-16.08 7.2-16.08 16.08zM0 49.922c0-6.628 5.373-12 12-12h54c6.627 0 12 5.372 12 12V77c0 6.627-5.373 12-12 12H12C5.373 89 0 83.627 0 77V49.922zm39 7.348a2.34 2.34 0 0 0-2.34 2.34v4.477a4.643 4.643 0 0 0-2.34 4.017c0 2.565 2.115 4.644 4.68 4.644 2.565 0 4.68-2.08 4.68-4.644a4.643 4.643 0 0 0-2.34-4.016V59.61A2.34 2.34 0 0 0 39 57.27z"/></symbol><symbol viewBox="0 0 131 87" id="logo" xmlns="http://www.w3.org/2000/svg"><path fill-rule="evenodd" clip-rule="evenodd" d="M105.258 21.37c5.473.788 11.126-1.89 13.922-7.098a13.673 13.673 0 0 0 .041-12.914c.197.092.393.19.586.294 5.955 3.196 8.159 10.672 4.924 16.698-3.234 6.026-10.683 8.32-16.637 5.124a12.08 12.08 0 0 1-2.836-2.104z"/><path d="M24.304 32.714c0 1.586-.56 2.958-1.68 4.116-1.12 1.138-2.753 1.96-4.9 2.464 1.157.317 2.035.84 2.632 1.568a3.71 3.71 0 0 1 .896 2.463c0 1.475-.467 2.754-1.4 3.836-.915 1.083-2.259 1.923-4.032 2.52-1.773.58-3.91.869-6.412.869-.933 0-1.68-.028-2.24-.084-.019.522-.243.914-.672 1.175-.43.262-.98.392-1.652.392-.672 0-1.139-.149-1.4-.447-.243-.3-.345-.738-.308-1.316.168-2.614.495-5.349.98-8.205a80.777 80.777 0 0 1 1.848-8.316c.13-.466.392-.793.784-.98.392-.186.905-.28 1.54-.28 1.139 0 1.708.318 1.708.953 0 .26-.056.56-.168.895-.485 1.456-.97 3.435-1.456 5.936a70.336 70.336 0 0 0-1.036 7.112 27.41 27.41 0 0 0 2.184.113c2.613 0 4.527-.374 5.74-1.12 1.232-.766 1.848-1.736 1.848-2.913 0-.82-.355-1.512-1.064-2.072-.69-.56-1.857-.867-3.5-.924-.373-.018-.635-.111-.784-.28-.15-.167-.224-.438-.224-.812 0-.54.112-.98.336-1.316.224-.336.635-.513 1.232-.532 1.325-.037 2.52-.233 3.584-.588 1.083-.354 1.932-.849 2.548-1.483.616-.654.924-1.41.924-2.268 0-1.083-.532-1.932-1.596-2.548-1.064-.635-2.697-.953-4.9-.953-1.997 0-3.93.262-5.796.785-1.867.503-3.453 1.148-4.76 1.932-.597.354-1.101.532-1.512.532-.336 0-.597-.113-.784-.337-.168-.242-.252-.54-.252-.895 0-.467.093-.869.28-1.204.205-.336.681-.72 1.428-1.148 1.568-.896 3.407-1.596 5.516-2.1a27.735 27.735 0 0 1 6.468-.757c3.379 0 5.899.57 7.56 1.709 1.661 1.138 2.492 2.64 2.492 4.508zm11.704 11.675c.242 0 .43.112.56.336.15.224.224.532.224.925 0 .746-.178 1.325-.532 1.736-.69.84-1.67 1.614-2.94 2.323a8.04 8.04 0 0 1-4.032 1.064c-1.96 0-3.482-.532-4.564-1.596-1.083-1.063-1.624-2.52-1.624-4.367 0-1.288.27-2.483.812-3.585.541-1.12 1.288-2.006 2.24-2.66.97-.653 2.062-.98 3.276-.98 1.082 0 1.95.327 2.604.98.653.635.98 1.503.98 2.605 0 1.288-.467 2.398-1.4 3.331-.915.915-2.474 1.643-4.676 2.184.466.86 1.353 1.288 2.66 1.288.84 0 1.792-.289 2.856-.867a9.606 9.606 0 0 0 2.8-2.325c.224-.26.476-.392.756-.392zm-7.056-4.06c-.69 0-1.279.402-1.764 1.204-.467.803-.7 1.774-.7 2.913v.056c1.101-.262 1.97-.654 2.604-1.177.634-.522.952-1.129.952-1.82 0-.354-.103-.634-.308-.84-.187-.224-.448-.335-.784-.335zm21.327 4.06c.243 0 .43.112.56.336.15.224.224.532.224.925 0 .746-.177 1.325-.532 1.736a13.913 13.913 0 0 1-2.52 2.407c-.914.654-1.82.98-2.716.98-1.418 0-2.501-.83-3.248-2.492-.784.99-1.474 1.653-2.072 1.989-.578.335-1.26.503-2.044.503-1.138 0-2.081-.42-2.828-1.26-.728-.858-1.092-1.969-1.092-3.331 0-1.494.318-2.875.952-4.145.635-1.288 1.503-2.333 2.604-3.136a7.624 7.624 0 0 1 3.752-1.456c.355-3.62 1.027-6.71 2.016-9.268 1.008-2.575 2.324-3.863 3.948-3.863.803 0 1.466.363 1.988 1.091.542.729.812 1.83.812 3.304 0 2.091-.513 4.537-1.54 7.336-1.026 2.8-2.398 5.675-4.116 8.624.075 1.083.234 1.858.476 2.325.262.466.588.7.98.7.504 0 1.018-.225 1.54-.672.523-.448 1.223-1.195 2.1-2.24.224-.262.476-.392.756-.392zm-3.304-17.332c-.354 0-.71.635-1.064 1.905-.354 1.25-.662 2.893-.924 4.927a93.847 93.847 0 0 0-.532 6.384c2.09-4.554 3.136-8.213 3.136-10.976 0-.709-.065-1.26-.196-1.652-.112-.392-.252-.587-.42-.587zm-8.064 20.889c.355 0 .71-.14 1.064-.42.355-.3.803-.84 1.344-1.625-.186-1.008-.28-2.137-.28-3.388 0-.447.019-1.175.056-2.183-1.026.317-1.885 1.008-2.576 2.072-.672 1.045-1.008 2.212-1.008 3.5 0 1.362.467 2.044 1.4 2.044zm22.362-3.556c.243 0 .43.111.56.335.15.224.224.532.224.925 0 .746-.177 1.325-.532 1.736-.802.989-1.68 1.8-2.632 2.435-.952.635-2.044.953-3.276.953-3.808 0-5.712-2.68-5.712-8.037 0-.82.028-1.651.084-2.492h-1.092c-.56 0-.942-.102-1.148-.307-.186-.206-.28-.532-.28-.98 0-1.046.42-1.569 1.26-1.569h1.596c.318-2.053.803-3.929 1.456-5.628.654-1.698 1.438-3.052 2.352-4.06.934-1.008 1.932-1.512 2.996-1.512.784 0 1.4.346 1.848 1.037.448.69.672 1.558.672 2.604 0 2.893-1.213 5.413-3.64 7.56h3.136c.3 0 .514.065.644.196.131.13.196.373.196.727 0 1.288-1.054 1.932-3.164 1.932h-3.416a58.277 58.277 0 0 0-.056 2.184c0 1.942.224 3.304.672 4.088.467.784 1.195 1.176 2.184 1.176.803 0 1.512-.242 2.128-.727.616-.486 1.344-1.214 2.184-2.184.224-.262.476-.392.756-.392zm-4.9-15.512c-.28 0-.597.354-.952 1.064-.336.69-.662 1.66-.98 2.911a40.92 40.92 0 0 0-.756 4.116c1.102-.952 1.923-2.016 2.464-3.191.56-1.195.84-2.278.84-3.248 0-1.102-.205-1.652-.616-1.652zm7.073 6.86c-.784 0-1.372-.178-1.764-.532-.392-.374-.588-.887-.588-1.54 0-.654.252-1.195.756-1.624.522-.449 1.166-.673 1.932-.673.69 0 1.25.169 1.68.505.429.335.644.811.644 1.427 0 .747-.243 1.344-.728 1.792-.486.43-1.13.644-1.932.644zm-.224 15.035c-1.214 0-2.1-.429-2.66-1.288-.542-.858-.812-1.997-.812-3.416 0-.84.102-1.913.308-3.22.224-1.325.504-2.557.84-3.695.168-.598.392-1.009.672-1.233.28-.224.728-.335 1.344-.335.952 0 1.428.317 1.428.952 0 .466-.178 1.549-.532 3.248-.448 2.053-.672 3.444-.672 4.172 0 .56.074.989.224 1.288.149.298.4.447.756.447.336 0 .756-.233 1.26-.7.504-.466 1.176-1.204 2.016-2.212.224-.26.476-.392.756-.392.242 0 .429.112.56.336.149.224.224.532.224.925 0 .746-.178 1.325-.532 1.736-1.848 2.258-3.575 3.387-5.18 3.387zm5.434 0c-.71 0-1.213-.373-1.512-1.12-.28-.746-.42-1.94-.42-3.584 0-2.426.346-4.732 1.036-6.916.168-.54.439-.933.812-1.175.392-.262.934-.392 1.624-.392.374 0 .635.046.784.14.15.093.224.27.224.532 0 .298-.14.97-.42 2.015-.186.747-.336 1.4-.448 1.96a18.76 18.76 0 0 0-.28 2.045c.504-1.456 1.102-2.688 1.792-3.697.71-1.008 1.428-1.754 2.156-2.24.747-.504 1.447-.755 2.1-.755.654 0 1.11.149 1.372.447.28.3.42.756.42 1.373 0 .597-.177 1.68-.532 3.248a31.66 31.66 0 0 0-.308 1.511c.934-2.295 1.97-3.966 3.108-5.011 1.139-1.046 2.203-1.569 3.192-1.569 1.214 0 1.82.607 1.82 1.82 0 .728-.205 2.044-.616 3.948-.354 1.624-.532 2.698-.532 3.22 0 .747.27 1.12.812 1.12.374 0 .812-.224 1.316-.671.523-.467 1.214-1.214 2.072-2.24.224-.262.476-.392.756-.392.243 0 .43.111.56.335.15.224.224.532.224.925 0 .746-.177 1.325-.532 1.736-.802.989-1.67 1.8-2.604 2.435-.914.635-1.96.953-3.136.953-.952 0-1.67-.271-2.156-.813-.485-.56-.728-1.362-.728-2.407 0-.523.13-1.457.392-2.8.243-1.176.364-1.988.364-2.436 0-.3-.102-.448-.308-.448-.242 0-.588.317-1.036.952-.448.615-.896 1.437-1.344 2.463a20.116 20.116 0 0 0-1.092 3.248c-.205.896-.448 1.494-.728 1.792-.261.3-.69.448-1.288.448-.616 0-1.082-.289-1.4-.867-.298-.598-.448-1.316-.448-2.157 0-.709.094-1.736.28-3.08.15-1.194.224-1.978.224-2.351 0-.3-.102-.448-.308-.448-.28 0-.634.336-1.064 1.008-.43.672-.85 1.53-1.26 2.575a26.34 26.34 0 0 0-.952 3.08c-.205.878-.448 1.475-.728 1.792-.261.3-.681.448-1.26.448zm28.872-5.544c.243 0 .43.113.56.337.15.223.224.531.224.923 0 .672-.159 1.251-.476 1.736a5.424 5.424 0 0 1-2.072 1.877c-.84.448-1.848.672-3.024.672-1.792 0-3.182-.532-4.172-1.596-.99-1.083-1.484-2.54-1.484-4.368 0-1.288.27-2.483.812-3.585.541-1.12 1.288-2.006 2.24-2.66.97-.653 2.063-.98 3.276-.98 1.083 0 1.95.327 2.604.98.653.635.98 1.503.98 2.605 0 1.288-.466 2.398-1.4 3.331-.915.915-2.483 1.643-4.704 2.184.448.86 1.204 1.288 2.268 1.288.766 0 1.39-.177 1.876-.532.504-.354 1.083-.952 1.736-1.791.224-.28.476-.42.756-.42zm-4.592-4.9c-.69 0-1.279.402-1.764 1.204-.466.803-.7 1.774-.7 2.913v.056c1.102-.262 1.97-.654 2.604-1.177.635-.522.952-1.129.952-1.82 0-.354-.103-.634-.308-.84-.186-.224-.448-.335-.784-.335zM16.24 74.037c.243 0 .43.122.56.364.13.243.196.551.196.925 0 .466-.065.83-.196 1.092-.13.242-.336.41-.616.503-1.12.392-2.352.616-3.696.672-.373 1.55-1.083 2.8-2.128 3.752-1.027.953-2.165 1.428-3.416 1.428-1.885 0-3.257-.718-4.116-2.155-.859-1.438-1.288-3.52-1.288-6.244 0-2.408.299-5.022.896-7.84.597-2.838 1.465-5.246 2.604-7.225 1.157-1.997 2.53-2.995 4.116-2.995.859 0 1.55.373 2.072 1.12.523.727.784 1.68.784 2.855 0 1.531-.29 3.053-.868 4.564-.579 1.513-1.54 3.1-2.884 4.76 1.25.094 2.268.617 3.052 1.569.784.933 1.25 2.09 1.4 3.471.877-.056 1.923-.242 3.136-.56.112-.037.243-.056.392-.056zM8.512 59.085c-.373 0-.784.56-1.232 1.68-.43 1.102-.83 2.605-1.204 4.508-.373 1.904-.653 3.986-.84 6.245 1.232-2.26 2.212-4.247 2.94-5.965.747-1.735 1.12-3.275 1.12-4.62 0-.597-.075-1.054-.224-1.371-.13-.318-.317-.476-.56-.476zm-1.456 20.72c.579 0 1.092-.242 1.54-.728.448-.485.747-1.185.896-2.1a3.973 3.973 0 0 1-1.344-1.54 4.677 4.677 0 0 1-.448-2.016c0-.26.037-.616.112-1.064h-.084c-.765 0-1.41.383-1.932 1.148-.504.747-.756 1.755-.756 3.025 0 1.064.196 1.876.588 2.436.41.56.887.84 1.428.84zm21.802-5.768c.243 0 .43.122.56.364.131.243.196.551.196.925 0 .896-.27 1.428-.812 1.596-1.12.392-2.352.615-3.696.672-.354 1.568-1.054 2.828-2.1 3.78-1.045.933-2.23 1.4-3.556 1.4-1.12 0-2.081-.271-2.884-.813a5.194 5.194 0 0 1-1.792-2.156 6.904 6.904 0 0 1-.616-2.912c0-1.418.271-2.678.812-3.78.542-1.12 1.288-1.987 2.24-2.603a5.582 5.582 0 0 1 3.164-.953c1.419 0 2.558.495 3.416 1.484.878.971 1.391 2.175 1.54 3.612.878-.056 1.923-.242 3.136-.56.15-.037.28-.056.392-.056zm-9.184 5.768c.598 0 1.111-.242 1.54-.728.448-.485.747-1.185.896-2.1a3.973 3.973 0 0 1-1.344-1.54 4.676 4.676 0 0 1-.448-2.016c0-.298.028-.597.084-.896h-.14c-.746 0-1.372.364-1.876 1.093-.485.709-.728 1.717-.728 3.023 0 1.027.196 1.811.588 2.352.411.542.887.813 1.428.813zm21.817-5.768c.243 0 .43.122.56.364.13.243.196.551.196.925 0 .896-.27 1.428-.812 1.596-1.12.392-2.352.615-3.696.672-.354 1.568-1.054 2.828-2.1 3.78-1.045.933-2.23 1.4-3.556 1.4-1.12 0-2.081-.271-2.884-.813a5.195 5.195 0 0 1-1.792-2.156 6.904 6.904 0 0 1-.616-2.912c0-1.418.27-2.678.812-3.78.541-1.12 1.288-1.987 2.24-2.603a5.582 5.582 0 0 1 3.164-.953c1.419 0 2.558.495 3.416 1.484.877.971 1.39 2.175 1.54 3.612.877-.056 1.923-.242 3.136-.56.15-.037.28-.056.392-.056zm-9.184 5.768c.597 0 1.11-.242 1.54-.728.448-.485.747-1.185.896-2.1a3.973 3.973 0 0 1-1.344-1.54 4.676 4.676 0 0 1-.448-2.016c0-.298.028-.597.084-.896h-.14c-.747 0-1.372.364-1.876 1.093-.485.709-.728 1.717-.728 3.023 0 1.027.196 1.811.588 2.352.41.542.887.813 1.428.813zm19.437-.084c.765.15 1.148.57 1.148 1.26 0 .467-.215.887-.644 1.26-.41.355-1.008.532-1.792.532-1.344 0-2.445-.41-3.304-1.231-.84-.84-1.26-1.933-1.26-3.276 0-.729.373-1.251 1.12-1.569.821-.354 1.41-.728 1.764-1.12.355-.41.532-.905.532-1.483 0-.337-.075-.588-.224-.756a.61.61 0 0 0-.504-.252c-.504 0-1.064.364-1.68 1.091-.597.728-1.157 1.671-1.68 2.828a19.762 19.762 0 0 0-1.232 3.529c-.205.877-.448 1.474-.728 1.791-.261.3-.681.448-1.26.448s-1.008-.205-1.288-.615c-.261-.43-.439-1.083-.532-1.96-.093-.878-.14-2.166-.14-3.864 0-2.875.29-5.871.868-8.989.597-3.117 1.465-5.73 2.604-7.84 1.157-2.128 2.539-3.192 4.144-3.192.859 0 1.55.374 2.072 1.12.541.728.812 1.68.812 2.856 0 1.886-.55 3.846-1.652 5.88-1.101 2.017-2.893 4.378-5.376 7.085-.056.97-.084 1.969-.084 2.995.896-2.333 1.923-4.022 3.08-5.067 1.157-1.064 2.24-1.597 3.248-1.597.933 0 1.68.318 2.24.953.579.634.868 1.418.868 2.352a5.336 5.336 0 0 1-.784 2.828c-.523.858-1.419 1.623-2.688 2.295.112.56.336.953.672 1.176.355.206.915.383 1.68.533zm-4.676-20.636c-.336 0-.71.486-1.12 1.456-.41.953-.812 2.25-1.204 3.892a54.018 54.018 0 0 0-.924 5.32 19.652 19.652 0 0 0 2.856-4.451c.765-1.606 1.148-3.062 1.148-4.369 0-.597-.065-1.054-.196-1.371-.13-.318-.317-.476-.56-.476z"/></symbol><symbol viewBox="0 0 22 24" id="logo-moon" xmlns="http://www.w3.org/2000/svg"><path fill-rule="evenodd" clip-rule="evenodd" d="M.258 20.37c5.473.788 11.126-1.89 13.922-7.098A13.673 13.673 0 0 0 14.222.359c.196.092.392.19.585.294 5.955 3.196 8.16 10.672 4.924 16.698-3.234 6.026-10.683 8.32-16.637 5.124A12.104 12.104 0 0 1 .258 20.37z"/></symbol><symbol viewBox="0 0 92 102" id="play" xmlns="http://www.w3.org/2000/svg"><path d="M86 40.608c8 4.619 8 16.166 0 20.784l-67.5 38.971c-8 4.619-18-1.154-18-10.392V12.03c0-9.238 10-15.011 18-10.392L86 40.607z"/></symbol><symbol viewBox="0 0 32 32" id="process" xmlns="http://www.w3.org/2000/svg"><path fill-rule="evenodd" clip-rule="evenodd" d="M16 32c8.837 0 16-7.163 16-16S24.837 0 16 0 0 7.163 0 16s7.163 16 16 16zm-6-21a1 1 0 1 0 0 2h12a1 1 0 1 0 0-2H10zm-1 5a1 1 0 0 1 1-1h12a1 1 0 1 1 0 2H10a1 1 0 0 1-1-1zm1 3a1 1 0 1 0 0 2h8a1 1 0 1 0 0-2h-8z"/></symbol><symbol viewBox="0 0 71 49" id="quote" xmlns="http://www.w3.org/2000/svg"><path opacity=".3" d="M40 30c0-5.2.8-9.667 2.4-13.4 1.6-3.867 3.667-7 6.2-9.4 2.533-2.533 5.4-4.333 8.6-5.4C60.533.6 63.8 0 67 0v7c-3.467 0-6.733 1.2-9.8 3.6-2.933 2.267-4.667 5.4-5.2 9.4.4-.133.867-.267 1.4-.4.4-.133.867-.267 1.4-.4.667-.133 1.4-.2 2.2-.2 4 0 7.333 1.533 10 4.6 2.667 2.933 4 6.4 4 10.4s-1.4 7.533-4.2 10.6C64.133 47.533 60.533 49 56 49c-5.067 0-9-1.867-11.8-5.6C41.4 39.533 40 35.067 40 30zM0 30c0-5.2.8-9.667 2.4-13.4 1.6-3.867 3.667-7 6.2-9.4 2.533-2.533 5.4-4.333 8.6-5.4C20.533.6 23.8 0 27 0v7c-3.467 0-6.733 1.2-9.8 3.6-2.933 2.267-4.667 5.4-5.2 9.4.4-.133.867-.267 1.4-.4.4-.133.867-.267 1.4-.4.667-.133 1.4-.2 2.2-.2 4 0 7.333 1.533 10 4.6 2.667 2.933 4 6.4 4 10.4s-1.4 7.533-4.2 10.6C24.133 47.533 20.533 49 16 49c-5.067 0-9-1.867-11.8-5.6C1.4 39.533 0 35.067 0 30z"/></symbol><symbol viewBox="0 0 32 32" id="screenshot" xmlns="http://www.w3.org/2000/svg"><path fill-rule="evenodd" clip-rule="evenodd" d="M32 16c0 8.837-7.163 16-16 16S0 24.837 0 16 7.163 0 16 0s16 7.163 16 16zM8 9a1 1 0 0 0-1 1v4h2v-1h14v8h-4v2h5a1 1 0 0 0 1-1V10a1 1 0 0 0-1-1H8zm-1 9a1 1 0 0 1 1-1h2l1-1h2l1 1h2a1 1 0 0 1 1 1v4a1 1 0 0 1-1 1H8a1 1 0 0 1-1-1v-4zm7 2a2 2 0 1 1-4 0 2 2 0 0 1 4 0z"/></symbol><symbol viewBox="0 0 12 12" id="teacher-fb" xmlns="http://www.w3.org/2000/svg"><path opacity=".3" d="M11.337 0H.663A.663.663 0 0 0 0 .663v10.674A.663.663 0 0 0 .663 12h5.748V7.368H4.842V5.543h1.56V4.211c0-1.552.945-2.396 2.329-2.396.47.001.939.028 1.406.08v1.619H9.18c-.752 0-.897.355-.897.88v1.158h1.8L9.85 7.368H8.284V12h3.053a.664.664 0 0 0 .663-.663V.663A.663.663 0 0 0 11.337 0z"/></symbol><symbol viewBox="0 0 24 20" id="telegram" xmlns="http://www.w3.org/2000/svg"><path d="M22.37.133L1.12 8.28c-1.45.58-1.444 1.385-.266 1.739l5.302 1.647 2.032 6.178c.245.677.122.945.84.945.553 0 .798-.25 1.105-.549l2.651-2.561 5.517 4.05c1.012.554 1.749.268 2-.94L23.923 1.84C24.279.365 23.34-.306 22.37.133zM6.986 11.287l11.948-7.495c.595-.36 1.141-.165.693.232l-10.23 9.172L9 17.416l-2.013-6.129z"/></symbol><symbol viewBox="0 0 16 16" id="time" xmlns="http://www.w3.org/2000/svg"><g opacity=".5"><path fill-rule="evenodd" clip-rule="evenodd" d="M8 14A6 6 0 1 0 8 2a6 6 0 0 0 0 12zm0 2A8 8 0 1 0 8 0a8 8 0 0 0 0 16z"/><path d="M9 5a1 1 0 0 0-2 0v2H6a1 1 0 0 0 0 2h2a1 1 0 0 0 1-1V5z"/></g></symbol><symbol viewBox="0 0 17 16" id="timeStart" xmlns="http://www.w3.org/2000/svg"><g opacity=".5"><path fill-rule="evenodd" clip-rule="evenodd" d="M1.328 9.25L3.658.556S7.379-.776 9.936 2.24c1.29 1.52 2.875 1.934 4.13 1.972 1.234.037 2.149-.29 2.149-.29l-2.33 8.693s-3.721 1.332-6.278-1.682c-1.29-1.52-2.875-1.935-4.13-1.973-1.234-.037-2.149.29-2.149.29zm7.083-5.718c1.59 1.874 3.54 2.512 5.127 2.65l-1.262 4.713a4.669 4.669 0 0 1-.501.01c-.847-.03-1.82-.297-2.643-1.267-1.589-1.873-3.54-2.512-5.127-2.65l1.263-4.712c.156-.012.324-.016.5-.01.847.03 1.82.297 2.643 1.266z"/><path d="M3.001 10.733l-2.147.287-.82 3.06a1 1 0 0 0 1.932.517l1.035-3.864z"/></g></symbol><symbol viewBox="0 0 105 26" id="triangle" xmlns="http://www.w3.org/2000/svg"><path opacity=".1" d="M.5 0H105 92.941a24 24 0 0 0-16.97 7.03L61.485 21.514c-4.686 4.686-12.284 4.686-16.97 0L30.029 7.029A24 24 0 0 0 13.06 0H.5z"/></symbol><symbol viewBox="0 0 32 32" id="video" xmlns="http://www.w3.org/2000/svg"><path fill-rule="evenodd" clip-rule="evenodd" d="M16 32c8.837 0 16-7.163 16-16S24.837 0 16 0 0 7.163 0 16s7.163 16 16 16zm-4-10l11-5.995L12 10v12z"/></symbol><symbol viewBox="0 0 16 13" id="warning" xmlns="http://www.w3.org/2000/svg"><path opacity=".5" fill-rule="evenodd" clip-rule="evenodd" d="M6.268 1c.77-1.333 2.694-1.333 3.464 0l5.196 9c.77 1.333-.192 3-1.732 3H2.804c-1.54 0-2.502-1.667-1.732-3l5.196-9zM7 3.5h2l-.5 4h-1l-.5-4zm2 6a1 1 0 1 1-2 0 1 1 0 0 1 2 0z"/></symbol><symbol viewBox="0 0 14 14" id="word-slider-arrow-down" xmlns="http://www.w3.org/2000/svg"><path fill-rule="evenodd" clip-rule="evenodd" d="M.855 5.988a1.21 1.21 0 0 0 0 1.71l4.277 4.278 1.711 1.71 1.71-1.71 4.278-4.277a1.21 1.21 0 0 0-1.71-1.711l-4.278 4.277-4.277-4.277a1.21 1.21 0 0 0-1.71 0z"/></symbol><symbol viewBox="0 0 14 14" id="word-slider-arrow-up" xmlns="http://www.w3.org/2000/svg"><path fill-rule="evenodd" clip-rule="evenodd" d="M5.132 1.71L6.843 0l1.71 1.71 4.278 4.278a1.21 1.21 0 0 1-1.71 1.71L6.842 3.423 2.566 7.699a1.21 1.21 0 0 1-1.71-1.711L5.131 1.71z"/></symbol></svg>