<svg width="191" height="51" viewBox="0 0 191 51" fill="none" xmlns="http://www.w3.org/2000/svg">
<path fill-rule="evenodd" clip-rule="evenodd" d="M131.171 15.0889C135.035 15.6448 139.026 13.7541 141 10.0772C142.591 7.1129 142.491 3.6975 141.03 0.95836C141.169 1.02373 141.307 1.09313 141.444 1.16667C145.648 3.42327 147.204 8.70165 144.921 12.9563C142.636 17.211 137.377 18.8308 133.173 16.5743C132.418 16.1689 131.749 15.6659 131.171 15.0889Z" fill="#FFD177"/>
<path d="M19.096 19.6769C19.096 20.9236 18.656 22.0016 17.776 22.9109C16.896 23.8056 15.6127 24.4509 13.926 24.8469C14.8353 25.0962 15.5247 25.5069 15.994 26.0789C16.4633 26.6362 16.698 27.2816 16.698 28.0149C16.698 29.1736 16.3313 30.1782 15.598 31.0289C14.8793 31.8796 13.8233 32.5396 12.43 33.0089C11.0367 33.4636 9.35733 33.6909 7.392 33.6909C6.65867 33.6909 6.072 33.6689 5.632 33.6249C5.61733 34.0356 5.44133 34.3436 5.104 34.5489C4.76667 34.7542 4.334 34.8569 3.806 34.8569C3.278 34.8569 2.91133 34.7396 2.706 34.5049C2.51533 34.2702 2.43467 33.9256 2.464 33.4709C2.596 31.4176 2.85267 29.2689 3.234 27.0249C3.61533 24.7662 4.09933 22.5882 4.686 20.4909C4.78867 20.1242 4.994 19.8676 5.302 19.7209C5.61 19.5742 6.01333 19.5009 6.512 19.5009C7.40667 19.5009 7.854 19.7502 7.854 20.2489C7.854 20.4542 7.81 20.6889 7.722 20.9529C7.34067 22.0969 6.95933 23.6516 6.578 25.6169C6.19667 27.5676 5.92533 29.4302 5.764 31.2049C6.468 31.2636 7.04 31.2929 7.48 31.2929C9.53333 31.2929 11.0367 30.9996 11.99 30.4129C12.958 29.8116 13.442 29.0489 13.442 28.1249C13.442 27.4796 13.1633 26.9369 12.606 26.4969C12.0633 26.0569 11.1467 25.8149 9.856 25.7709C9.56267 25.7562 9.35733 25.6829 9.24 25.5509C9.12267 25.4189 9.064 25.2062 9.064 24.9129C9.064 24.4876 9.152 24.1429 9.328 23.8789C9.504 23.6149 9.82667 23.4756 10.296 23.4609C11.3373 23.4316 12.276 23.2776 13.112 22.9989C13.9627 22.7202 14.63 22.3316 15.114 21.8329C15.598 21.3196 15.84 20.7256 15.84 20.0509C15.84 19.2002 15.422 18.5329 14.586 18.0489C13.75 17.5502 12.4667 17.3009 10.736 17.3009C9.16667 17.3009 7.64867 17.5062 6.182 17.9169C4.71533 18.3129 3.46867 18.8189 2.442 19.4349C1.97267 19.7136 1.57667 19.8529 1.254 19.8529C0.99 19.8529 0.784667 19.7649 0.638 19.5889C0.506 19.3982 0.44 19.1636 0.44 18.8849C0.44 18.5182 0.513333 18.2029 0.66 17.9389C0.821333 17.6749 1.19533 17.3742 1.782 17.0369C3.014 16.3329 4.45867 15.7829 6.116 15.3869C7.77333 14.9909 9.46733 14.7929 11.198 14.7929C13.8527 14.7929 15.8327 15.2402 17.138 16.1349C18.4433 17.0296 19.096 18.2102 19.096 19.6769ZM28.2918 28.8509C28.4825 28.8509 28.6292 28.9389 28.7318 29.1149C28.8492 29.2909 28.9078 29.5329 28.9078 29.8409C28.9078 30.4276 28.7685 30.8822 28.4898 31.2049C27.9472 31.8649 27.1772 32.4736 26.1798 33.0309C25.1972 33.5882 24.1412 33.8669 23.0118 33.8669C21.4718 33.8669 20.2765 33.4489 19.4258 32.6129C18.5752 31.7769 18.1498 30.6329 18.1498 29.1809C18.1498 28.1689 18.3625 27.2302 18.7878 26.3649C19.2132 25.4849 19.7998 24.7882 20.5478 24.2749C21.3105 23.7616 22.1685 23.5049 23.1218 23.5049C23.9725 23.5049 24.6545 23.7616 25.1678 24.2749C25.6812 24.7736 25.9378 25.4556 25.9378 26.3209C25.9378 27.3329 25.5712 28.2056 24.8378 28.9389C24.1192 29.6576 22.8945 30.2296 21.1638 30.6549C21.5305 31.3296 22.2272 31.6669 23.2538 31.6669C23.9138 31.6669 24.6618 31.4396 25.4978 30.9849C26.3485 30.5156 27.0818 29.9069 27.6978 29.1589C27.8738 28.9536 28.0718 28.8509 28.2918 28.8509ZM22.7478 25.6609C22.2052 25.6609 21.7432 25.9762 21.3618 26.6069C20.9952 27.2376 20.8118 28.0002 20.8118 28.8949V28.9389C21.6772 28.7336 22.3592 28.4256 22.8578 28.0149C23.3565 27.6042 23.6058 27.1276 23.6058 26.5849C23.6058 26.3062 23.5252 26.0862 23.3638 25.9249C23.2172 25.7489 23.0118 25.6609 22.7478 25.6609ZM39.5051 28.8509C39.6958 28.8509 39.8425 28.9389 39.9451 29.1149C40.0625 29.2909 40.1211 29.5329 40.1211 29.8409C40.1211 30.4276 39.9818 30.8822 39.7031 31.2049C39.1018 31.9382 38.4418 32.5689 37.7231 33.0969C37.0045 33.6102 36.2931 33.8669 35.5891 33.8669C34.4745 33.8669 33.6238 33.2142 33.0371 31.9089C32.4211 32.6862 31.8785 33.2069 31.4091 33.4709C30.9545 33.7349 30.4191 33.8669 29.8031 33.8669C28.9085 33.8669 28.1678 33.5369 27.5811 32.8769C27.0091 32.2022 26.7231 31.3296 26.7231 30.2589C26.7231 29.0856 26.9725 28.0002 27.4711 27.0029C27.9698 25.9909 28.6518 25.1696 29.5171 24.5389C30.3971 23.8936 31.3798 23.5122 32.4651 23.3949C32.7438 20.5496 33.2718 18.1222 34.0491 16.1129C34.8411 14.0889 35.8751 13.0769 37.1511 13.0769C37.7818 13.0769 38.3025 13.3629 38.7131 13.9349C39.1385 14.5069 39.3511 15.3722 39.3511 16.5309C39.3511 18.1736 38.9478 20.0949 38.1411 22.2949C37.3345 24.4949 36.2565 26.7536 34.9071 29.0709C34.9658 29.9216 35.0905 30.5302 35.2811 30.8969C35.4865 31.2636 35.7431 31.4469 36.0511 31.4469C36.4471 31.4469 36.8505 31.2709 37.2611 30.9189C37.6718 30.5669 38.2218 29.9802 38.9111 29.1589C39.0871 28.9536 39.2851 28.8509 39.5051 28.8509ZM36.9091 15.2329C36.6305 15.2329 36.3518 15.7316 36.0731 16.7289C35.7945 17.7116 35.5525 19.0022 35.3471 20.6009C35.1565 22.1996 35.0171 23.8716 34.9291 25.6169C36.5718 22.0382 37.3931 19.1636 37.3931 16.9929C37.3931 16.4356 37.3418 16.0029 37.2391 15.6949C37.1511 15.3869 37.0411 15.2329 36.9091 15.2329ZM30.5731 31.6449C30.8518 31.6449 31.1305 31.5349 31.4091 31.3149C31.6878 31.0802 32.0398 30.6549 32.4651 30.0389C32.3185 29.2469 32.2451 28.3596 32.2451 27.3769C32.2451 27.0249 32.2598 26.4529 32.2891 25.6609C31.4825 25.9102 30.8078 26.4529 30.2651 27.2889C29.7371 28.1102 29.4731 29.0269 29.4731 30.0389C29.4731 31.1096 29.8398 31.6449 30.5731 31.6449ZM48.1434 28.8509C48.3341 28.8509 48.4807 28.9389 48.5834 29.1149C48.7007 29.2909 48.7594 29.5329 48.7594 29.8409C48.7594 30.4276 48.6201 30.8822 48.3414 31.2049C47.7107 31.9822 47.0214 32.6202 46.2734 33.1189C45.5254 33.6176 44.6674 33.8669 43.6994 33.8669C40.7074 33.8669 39.2114 31.7622 39.2114 27.5529C39.2114 26.9076 39.2334 26.2549 39.2774 25.5949H38.4194C37.9794 25.5949 37.6787 25.5142 37.5174 25.3529C37.3707 25.1916 37.2974 24.9349 37.2974 24.5829C37.2974 23.7616 37.6274 23.3509 38.2874 23.3509H39.5414C39.7907 21.7376 40.1721 20.2636 40.6854 18.9289C41.1987 17.5942 41.8147 16.5309 42.5334 15.7389C43.2667 14.9469 44.0514 14.5509 44.8874 14.5509C45.5034 14.5509 45.9874 14.8222 46.3394 15.3649C46.6914 15.9076 46.8674 16.5896 46.8674 17.4109C46.8674 19.6842 45.9141 21.6642 44.0074 23.3509H46.4714C46.7061 23.3509 46.8747 23.4022 46.9774 23.5049C47.0801 23.6076 47.1314 23.7982 47.1314 24.0769C47.1314 25.0889 46.3027 25.5949 44.6454 25.5949H41.9614C41.9321 26.3282 41.9174 26.9002 41.9174 27.3109C41.9174 28.8362 42.0934 29.9069 42.4454 30.5229C42.8121 31.1389 43.3841 31.4469 44.1614 31.4469C44.7921 31.4469 45.3494 31.2562 45.8334 30.8749C46.3174 30.4936 46.8894 29.9216 47.5494 29.1589C47.7254 28.9536 47.9234 28.8509 48.1434 28.8509ZM44.2934 16.6629C44.0734 16.6629 43.8241 16.9416 43.5454 17.4989C43.2814 18.0416 43.0247 18.8042 42.7754 19.7869C42.5407 20.7549 42.3427 21.8329 42.1814 23.0209C43.0467 22.2729 43.6921 21.4369 44.1174 20.5129C44.5574 19.5742 44.7774 18.7236 44.7774 17.9609C44.7774 17.0956 44.6161 16.6629 44.2934 16.6629ZM49.8501 22.0529C49.2341 22.0529 48.7721 21.9136 48.4641 21.6349C48.1561 21.3416 48.0021 20.9382 48.0021 20.4249C48.0021 19.9116 48.2001 19.4862 48.5961 19.1489C49.0068 18.7969 49.5128 18.6209 50.1141 18.6209C50.6568 18.6209 51.0968 18.7529 51.4341 19.0169C51.7714 19.2809 51.9401 19.6549 51.9401 20.1389C51.9401 20.7256 51.7494 21.1949 51.3681 21.5469C50.9868 21.8842 50.4808 22.0529 49.8501 22.0529ZM49.6741 33.8669C48.7208 33.8669 48.0241 33.5296 47.5841 32.8549C47.1588 32.1802 46.9461 31.2856 46.9461 30.1709C46.9461 29.5109 47.0268 28.6676 47.1881 27.6409C47.3641 26.5996 47.5841 25.6316 47.8481 24.7369C47.9801 24.2676 48.1561 23.9449 48.3761 23.7689C48.5961 23.5929 48.9481 23.5049 49.4321 23.5049C50.1801 23.5049 50.5541 23.7542 50.5541 24.2529C50.5541 24.6196 50.4148 25.4702 50.1361 26.8049C49.7841 28.4182 49.6081 29.5109 49.6081 30.0829C49.6081 30.5229 49.6668 30.8602 49.7841 31.0949C49.9014 31.3296 50.0994 31.4469 50.3781 31.4469C50.6421 31.4469 50.9721 31.2636 51.3681 30.8969C51.7641 30.5302 52.2921 29.9509 52.9521 29.1589C53.1281 28.9536 53.3261 28.8509 53.5461 28.8509C53.7368 28.8509 53.8834 28.9389 53.9861 29.1149C54.1034 29.2909 54.1621 29.5329 54.1621 29.8409C54.1621 30.4276 54.0228 30.8822 53.7441 31.2049C52.2921 32.9796 50.9354 33.8669 49.6741 33.8669ZM53.9442 33.8669C53.3868 33.8669 52.9908 33.5736 52.7562 32.9869C52.5362 32.4002 52.4262 31.4616 52.4262 30.1709C52.4262 28.2642 52.6975 26.4529 53.2402 24.7369C53.3722 24.3116 53.5848 24.0036 53.8782 23.8129C54.1862 23.6076 54.6115 23.5049 55.1542 23.5049C55.4475 23.5049 55.6528 23.5416 55.7702 23.6149C55.8875 23.6882 55.9462 23.8276 55.9462 24.0329C55.9462 24.2676 55.8362 24.7956 55.6162 25.6169C55.4695 26.2036 55.3522 26.7169 55.2642 27.1569C55.1762 27.5822 55.1028 28.1176 55.0442 28.7629C55.4402 27.6189 55.9095 26.6509 56.4522 25.8589C57.0095 25.0669 57.5742 24.4802 58.1462 24.0989C58.7328 23.7029 59.2828 23.5049 59.7962 23.5049C60.3095 23.5049 60.6688 23.6222 60.8742 23.8569C61.0942 24.0916 61.2042 24.4509 61.2042 24.9349C61.2042 25.4042 61.0648 26.2549 60.7862 27.4869C60.6688 28.0149 60.5882 28.4109 60.5442 28.6749C61.2775 26.8709 62.0915 25.5582 62.9862 24.7369C63.8808 23.9156 64.7168 23.5049 65.4942 23.5049C66.4475 23.5049 66.9242 23.9816 66.9242 24.9349C66.9242 25.5069 66.7628 26.5409 66.4402 28.0369C66.1615 29.3129 66.0222 30.1562 66.0222 30.5669C66.0222 31.1536 66.2348 31.4469 66.6602 31.4469C66.9535 31.4469 67.2982 31.2709 67.6942 30.9189C68.1048 30.5522 68.6475 29.9656 69.3222 29.1589C69.4982 28.9536 69.6962 28.8509 69.9162 28.8509C70.1068 28.8509 70.2535 28.9389 70.3562 29.1149C70.4735 29.2909 70.5322 29.5329 70.5322 29.8409C70.5322 30.4276 70.3928 30.8822 70.1142 31.2049C69.4835 31.9822 68.8015 32.6202 68.0682 33.1189C67.3495 33.6176 66.5282 33.8669 65.6042 33.8669C64.8562 33.8669 64.2915 33.6542 63.9102 33.2289C63.5288 32.7889 63.3382 32.1582 63.3382 31.3369C63.3382 30.9262 63.4408 30.1929 63.6462 29.1369C63.8368 28.2129 63.9322 27.5749 63.9322 27.2229C63.9322 26.9882 63.8515 26.8709 63.6902 26.8709C63.4995 26.8709 63.2282 27.1202 62.8762 27.6189C62.5242 28.1029 62.1722 28.7482 61.8202 29.5549C61.4682 30.3616 61.1822 31.2122 60.9622 32.1069C60.8008 32.8109 60.6102 33.2802 60.3902 33.5149C60.1848 33.7496 59.8475 33.8669 59.3782 33.8669C58.8942 33.8669 58.5275 33.6396 58.2782 33.1849C58.0435 32.7156 57.9262 32.1509 57.9262 31.4909C57.9262 30.9336 57.9995 30.1269 58.1462 29.0709C58.2635 28.1322 58.3222 27.5162 58.3222 27.2229C58.3222 26.9882 58.2415 26.8709 58.0802 26.8709C57.8602 26.8709 57.5815 27.1349 57.2442 27.6629C56.9068 28.1909 56.5768 28.8656 56.2542 29.6869C55.9462 30.5082 55.6968 31.3149 55.5062 32.1069C55.3448 32.7962 55.1542 33.2656 54.9342 33.5149C54.7288 33.7496 54.3988 33.8669 53.9442 33.8669ZM76.6293 29.5109C76.8199 29.5109 76.9666 29.5989 77.0693 29.7749C77.1866 29.9509 77.2453 30.1929 77.2453 30.5009C77.2453 31.0289 77.1206 31.4836 76.8713 31.8649C76.4606 32.4956 75.9179 32.9869 75.2433 33.3389C74.5833 33.6909 73.7913 33.8669 72.8673 33.8669C71.4593 33.8669 70.3666 33.4489 69.5893 32.6129C68.8119 31.7622 68.4233 30.6182 68.4233 29.1809C68.4233 28.1689 68.6359 27.2302 69.0613 26.3649C69.4866 25.4849 70.0733 24.7882 70.8213 24.2749C71.5839 23.7616 72.4419 23.5049 73.3953 23.5049C74.2459 23.5049 74.9279 23.7616 75.4413 24.2749C75.9546 24.7736 76.2113 25.4556 76.2113 26.3209C76.2113 27.3329 75.8446 28.2056 75.1113 28.9389C74.3926 29.6576 73.1606 30.2296 71.4153 30.6549C71.7673 31.3296 72.3613 31.6669 73.1973 31.6669C73.7986 31.6669 74.2899 31.5276 74.6713 31.2489C75.0673 30.9702 75.5219 30.5009 76.0353 29.8409C76.2113 29.6209 76.4093 29.5109 76.6293 29.5109ZM73.0213 25.6609C72.4786 25.6609 72.0166 25.9762 71.6353 26.6069C71.2686 27.2376 71.0853 28.0002 71.0853 28.8949V28.9389C71.9506 28.7336 72.6326 28.4256 73.1313 28.0149C73.6299 27.6042 73.8793 27.1276 73.8793 26.5849C73.8793 26.3062 73.7986 26.0862 73.6373 25.9249C73.4906 25.7489 73.2853 25.6609 73.0213 25.6609ZM95.3245 27.0029C95.5151 27.0029 95.6618 27.0982 95.7645 27.2889C95.8671 27.4796 95.9185 27.7216 95.9185 28.0149C95.9185 28.3816 95.8671 28.6676 95.7645 28.8729C95.6618 29.0636 95.5005 29.1956 95.2805 29.2689C94.4005 29.5769 93.4325 29.7529 92.3765 29.7969C92.0831 31.0142 91.5258 31.9969 90.7045 32.7449C89.8978 33.4929 89.0031 33.8669 88.0205 33.8669C86.5391 33.8669 85.4611 33.3022 84.7865 32.1729C84.1118 31.0436 83.7745 29.4082 83.7745 27.2669C83.7745 25.3749 84.0091 23.3216 84.4785 21.1069C84.9478 18.8776 85.6298 16.9856 86.5245 15.4309C87.4338 13.8616 88.5118 13.0769 89.7585 13.0769C90.4331 13.0769 90.9758 13.3702 91.3865 13.9569C91.7971 14.5289 92.0025 15.2769 92.0025 16.2009C92.0025 17.4036 91.7751 18.5989 91.3205 19.7869C90.8658 20.9749 90.1105 22.2216 89.0545 23.5269C90.0371 23.6002 90.8365 24.0109 91.4525 24.7589C92.0685 25.4922 92.4351 26.4016 92.5525 27.4869C93.2418 27.4429 94.0631 27.2962 95.0165 27.0469C95.1045 27.0176 95.2071 27.0029 95.3245 27.0029ZM89.2525 15.2549C88.9591 15.2549 88.6365 15.6949 88.2845 16.5749C87.9471 17.4402 87.6318 18.6209 87.3385 20.1169C87.0451 21.6129 86.8251 23.2482 86.6785 25.0229C87.6465 23.2482 88.4165 21.6862 88.9885 20.3369C89.5751 18.9729 89.8685 17.7629 89.8685 16.7069C89.8685 16.2376 89.8098 15.8782 89.6925 15.6289C89.5898 15.3796 89.4431 15.2549 89.2525 15.2549ZM88.1085 31.5349C88.5631 31.5349 88.9665 31.3442 89.3185 30.9629C89.6705 30.5816 89.9051 30.0316 90.0225 29.3129C89.5678 29.0049 89.2158 28.6016 88.9665 28.1029C88.7318 27.6042 88.6145 27.0762 88.6145 26.5189C88.6145 26.3136 88.6438 26.0349 88.7025 25.6829H88.6365C88.0351 25.6829 87.5291 25.9836 87.1185 26.5849C86.7225 27.1716 86.5245 27.9636 86.5245 28.9609C86.5245 29.7969 86.6785 30.4349 86.9865 30.8749C87.3091 31.3149 87.6831 31.5349 88.1085 31.5349ZM105.239 27.0029C105.43 27.0029 105.576 27.0982 105.679 27.2889C105.782 27.4796 105.833 27.7216 105.833 28.0149C105.833 28.7189 105.62 29.1369 105.195 29.2689C104.315 29.5769 103.347 29.7529 102.291 29.7969C102.012 31.0289 101.462 32.0189 100.641 32.7669C99.8196 33.5002 98.8882 33.8669 97.8469 33.8669C96.9669 33.8669 96.2116 33.6542 95.5809 33.2289C94.9649 32.8036 94.4956 32.2389 94.1729 31.5349C93.8502 30.8309 93.6889 30.0682 93.6889 29.2469C93.6889 28.1322 93.9016 27.1422 94.3269 26.2769C94.7522 25.3969 95.3389 24.7149 96.0869 24.2309C96.8349 23.7322 97.6636 23.4829 98.5729 23.4829C99.6876 23.4829 100.582 23.8716 101.257 24.6489C101.946 25.4116 102.35 26.3576 102.467 27.4869C103.156 27.4429 103.978 27.2962 104.931 27.0469C105.048 27.0176 105.151 27.0029 105.239 27.0029ZM98.0229 31.5349C98.4922 31.5349 98.8956 31.3442 99.2329 30.9629C99.5849 30.5816 99.8196 30.0316 99.9369 29.3129C99.4822 29.0049 99.1302 28.6016 98.8809 28.1029C98.6462 27.6042 98.5289 27.0762 98.5289 26.5189C98.5289 26.2842 98.5509 26.0496 98.5949 25.8149H98.4849C97.8982 25.8149 97.4069 26.1009 97.0109 26.6729C96.6296 27.2302 96.4389 28.0222 96.4389 29.0489C96.4389 29.8556 96.5929 30.4716 96.9009 30.8969C97.2236 31.3222 97.5976 31.5349 98.0229 31.5349ZM115.165 27.0029C115.355 27.0029 115.502 27.0982 115.605 27.2889C115.707 27.4796 115.759 27.7216 115.759 28.0149C115.759 28.7189 115.546 29.1369 115.121 29.2689C114.241 29.5769 113.273 29.7529 112.217 29.7969C111.938 31.0289 111.388 32.0189 110.567 32.7669C109.745 33.5002 108.814 33.8669 107.773 33.8669C106.893 33.8669 106.137 33.6542 105.507 33.2289C104.891 32.8036 104.421 32.2389 104.099 31.5349C103.776 30.8309 103.615 30.0682 103.615 29.2469C103.615 28.1322 103.827 27.1422 104.253 26.2769C104.678 25.3969 105.265 24.7149 106.013 24.2309C106.761 23.7322 107.589 23.4829 108.499 23.4829C109.613 23.4829 110.508 23.8716 111.183 24.6489C111.872 25.4116 112.275 26.3576 112.393 27.4869C113.082 27.4429 113.903 27.2962 114.857 27.0469C114.974 27.0176 115.077 27.0029 115.165 27.0029ZM107.949 31.5349C108.418 31.5349 108.821 31.3442 109.159 30.9629C109.511 30.5816 109.745 30.0316 109.863 29.3129C109.408 29.0049 109.056 28.6016 108.807 28.1029C108.572 27.6042 108.455 27.0762 108.455 26.5189C108.455 26.2842 108.477 26.0496 108.521 25.8149H108.411C107.824 25.8149 107.333 26.1009 106.937 26.6729C106.555 27.2302 106.365 28.0222 106.365 29.0489C106.365 29.8556 106.519 30.4716 106.827 30.8969C107.149 31.3222 107.523 31.5349 107.949 31.5349ZM123.22 31.4689C123.822 31.5862 124.122 31.9162 124.122 32.4589C124.122 32.8256 123.954 33.1556 123.616 33.4489C123.294 33.7276 122.824 33.8669 122.208 33.8669C121.152 33.8669 120.287 33.5442 119.612 32.8989C118.952 32.2389 118.622 31.3809 118.622 30.3249C118.622 29.7529 118.916 29.3422 119.502 29.0929C120.148 28.8142 120.61 28.5209 120.888 28.2129C121.167 27.8902 121.306 27.5016 121.306 27.0469C121.306 26.7829 121.248 26.5849 121.13 26.4529C121.028 26.3209 120.896 26.2549 120.734 26.2549C120.338 26.2549 119.898 26.5409 119.414 27.1129C118.945 27.6849 118.505 28.4256 118.094 29.3349C117.684 30.2296 117.361 31.1536 117.126 32.1069C116.965 32.7962 116.774 33.2656 116.554 33.5149C116.349 33.7496 116.019 33.8669 115.564 33.8669C115.11 33.8669 114.772 33.7056 114.552 33.3829C114.347 33.0456 114.208 32.5322 114.134 31.8429C114.061 31.1536 114.024 30.1416 114.024 28.8069C114.024 26.5482 114.252 24.1942 114.706 21.7449C115.176 19.2956 115.858 17.2422 116.752 15.5849C117.662 13.9129 118.747 13.0769 120.008 13.0769C120.683 13.0769 121.226 13.3702 121.636 13.9569C122.062 14.5289 122.274 15.2769 122.274 16.2009C122.274 17.6822 121.842 19.2222 120.976 20.8209C120.111 22.4049 118.703 24.2602 116.752 26.3869C116.708 27.1496 116.686 27.9342 116.686 28.7409C117.39 26.9076 118.197 25.5802 119.106 24.7589C120.016 23.9229 120.866 23.5049 121.658 23.5049C122.392 23.5049 122.978 23.7542 123.418 24.2529C123.873 24.7516 124.1 25.3676 124.1 26.1009C124.1 26.9076 123.895 27.6482 123.484 28.3229C123.074 28.9976 122.37 29.5989 121.372 30.1269C121.46 30.5669 121.636 30.8749 121.9 31.0509C122.179 31.2122 122.619 31.3516 123.22 31.4689ZM119.546 15.2549C119.282 15.2549 118.989 15.6362 118.666 16.3989C118.344 17.1469 118.028 18.1662 117.72 19.4569C117.427 20.7329 117.185 22.1262 116.994 23.6369C117.904 22.5662 118.652 21.4002 119.238 20.1389C119.84 18.8776 120.14 17.7336 120.14 16.7069C120.14 16.2376 120.089 15.8782 119.986 15.6289C119.884 15.3796 119.737 15.2549 119.546 15.2549Z" fill="white"/>
</svg>
