<svg width="131" height="87" viewBox="0 0 131 87" fill="none" xmlns="http://www.w3.org/2000/svg">
<path fill-rule="evenodd" clip-rule="evenodd" d="M105.258 21.3704C110.731 22.1581 116.384 19.4804 119.18 14.2725C121.433 10.0742 121.29 5.23716 119.221 1.35779C119.418 1.45024 119.614 1.54844 119.807 1.65246C125.762 4.84845 127.966 12.3243 124.731 18.3502C121.497 24.3761 114.048 26.6702 108.094 23.4743C107.024 22.9 106.075 22.1877 105.258 21.3704Z" fill="#FFD177"/>
<path d="M24.304 32.7135C24.304 34.3002 23.744 35.6722 22.624 36.8295C21.504 37.9682 19.8707 38.7895 17.724 39.2935C18.8813 39.6109 19.7587 40.1335 20.356 40.8615C20.9533 41.5709 21.252 42.3922 21.252 43.3255C21.252 44.8002 20.7853 46.0789 19.852 47.1615C18.9373 48.2442 17.5933 49.0842 15.82 49.6815C14.0467 50.2602 11.9093 50.5495 9.408 50.5495C8.47467 50.5495 7.728 50.5215 7.168 50.4655C7.14933 50.9882 6.92533 51.3802 6.496 51.6415C6.06667 51.9029 5.516 52.0335 4.844 52.0335C4.172 52.0335 3.70533 51.8842 3.444 51.5855C3.20133 51.2869 3.09867 50.8482 3.136 50.2695C3.304 47.6562 3.63067 44.9215 4.116 42.0655C4.60133 39.1909 5.21733 36.4189 5.964 33.7495C6.09467 33.2829 6.356 32.9562 6.748 32.7695C7.14 32.5829 7.65333 32.4895 8.288 32.4895C9.42667 32.4895 9.996 32.8069 9.996 33.4415C9.996 33.7029 9.94 34.0015 9.828 34.3375C9.34267 35.7935 8.85733 37.7722 8.372 40.2735C7.88667 42.7562 7.54133 45.1269 7.336 47.3855C8.232 47.4602 8.96 47.4975 9.52 47.4975C12.1333 47.4975 14.0467 47.1242 15.26 46.3775C16.492 45.6122 17.108 44.6415 17.108 43.4655C17.108 42.6442 16.7533 41.9535 16.044 41.3935C15.3533 40.8335 14.1867 40.5255 12.544 40.4695C12.1707 40.4509 11.9093 40.3575 11.76 40.1895C11.6107 40.0215 11.536 39.7509 11.536 39.3775C11.536 38.8362 11.648 38.3975 11.872 38.0615C12.096 37.7255 12.5067 37.5482 13.104 37.5295C14.4293 37.4922 15.624 37.2962 16.688 36.9415C17.7707 36.5869 18.62 36.0922 19.236 35.4575C19.852 34.8042 20.16 34.0482 20.16 33.1895C20.16 32.1069 19.628 31.2575 18.564 30.6415C17.5 30.0069 15.8667 29.6895 13.664 29.6895C11.6667 29.6895 9.73467 29.9509 7.868 30.4735C6.00133 30.9775 4.41467 31.6215 3.108 32.4055C2.51067 32.7602 2.00667 32.9375 1.596 32.9375C1.26 32.9375 0.998667 32.8255 0.812 32.6015C0.644 32.3589 0.56 32.0602 0.56 31.7055C0.56 31.2389 0.653333 30.8375 0.84 30.5015C1.04533 30.1655 1.52133 29.7829 2.268 29.3535C3.836 28.4575 5.67467 27.7575 7.784 27.2535C9.89333 26.7495 12.0493 26.4975 14.252 26.4975C17.6307 26.4975 20.1507 27.0669 21.812 28.2055C23.4733 29.3442 24.304 30.8469 24.304 32.7135ZM36.0078 44.3895C36.2504 44.3895 36.4371 44.5015 36.5678 44.7255C36.7171 44.9495 36.7918 45.2575 36.7918 45.6495C36.7918 46.3962 36.6144 46.9749 36.2598 47.3855C35.5691 48.2255 34.5891 49.0002 33.3198 49.7095C32.0691 50.4189 30.7251 50.7735 29.2878 50.7735C27.3278 50.7735 25.8064 50.2415 24.7238 49.1775C23.6411 48.1135 23.0998 46.6575 23.0998 44.8095C23.0998 43.5215 23.3704 42.3269 23.9118 41.2255C24.4531 40.1055 25.1998 39.2189 26.1518 38.5655C27.1224 37.9122 28.2144 37.5855 29.4278 37.5855C30.5104 37.5855 31.3784 37.9122 32.0318 38.5655C32.6851 39.2002 33.0118 40.0682 33.0118 41.1695C33.0118 42.4575 32.5451 43.5682 31.6118 44.5015C30.6971 45.4162 29.1384 46.1442 26.9358 46.6855C27.4024 47.5442 28.2891 47.9735 29.5958 47.9735C30.4358 47.9735 31.3878 47.6842 32.4518 47.1055C33.5344 46.5082 34.4678 45.7335 35.2518 44.7815C35.4758 44.5202 35.7278 44.3895 36.0078 44.3895ZM28.9518 40.3295C28.2611 40.3295 27.6731 40.7309 27.1878 41.5335C26.7211 42.3362 26.4878 43.3069 26.4878 44.4455V44.5015C27.5891 44.2402 28.4571 43.8482 29.0918 43.3255C29.7264 42.8029 30.0438 42.1962 30.0438 41.5055C30.0438 41.1509 29.9411 40.8709 29.7358 40.6655C29.5491 40.4415 29.2878 40.3295 28.9518 40.3295ZM50.2793 44.3895C50.5219 44.3895 50.7086 44.5015 50.8393 44.7255C50.9886 44.9495 51.0633 45.2575 51.0633 45.6495C51.0633 46.3962 50.8859 46.9749 50.5312 47.3855C49.7659 48.3189 48.9259 49.1215 48.0113 49.7935C47.0966 50.4469 46.1913 50.7735 45.2953 50.7735C43.8766 50.7735 42.7939 49.9429 42.0473 48.2815C41.2633 49.2709 40.5726 49.9335 39.9753 50.2695C39.3966 50.6055 38.7153 50.7735 37.9313 50.7735C36.7926 50.7735 35.8499 50.3535 35.1033 49.5135C34.3753 48.6549 34.0113 47.5442 34.0113 46.1815C34.0113 44.6882 34.3286 43.3069 34.9633 42.0375C35.5979 40.7495 36.4659 39.7042 37.5673 38.9015C38.6873 38.0802 39.9379 37.5949 41.3193 37.4455C41.6739 33.8242 42.3459 30.7349 43.3353 28.1775C44.3433 25.6015 45.6593 24.3135 47.2833 24.3135C48.0859 24.3135 48.7486 24.6775 49.2713 25.4055C49.8126 26.1335 50.0833 27.2349 50.0833 28.7095C50.0833 30.8002 49.5699 33.2455 48.5433 36.0455C47.5166 38.8455 46.1446 41.7202 44.4273 44.6695C44.5019 45.7522 44.6606 46.5269 44.9033 46.9935C45.1646 47.4602 45.4913 47.6935 45.8833 47.6935C46.3873 47.6935 46.9006 47.4695 47.4232 47.0215C47.9459 46.5735 48.6459 45.8269 49.5233 44.7815C49.7473 44.5202 49.9993 44.3895 50.2793 44.3895ZM46.9753 27.0575C46.6206 27.0575 46.2659 27.6922 45.9113 28.9615C45.5566 30.2122 45.2486 31.8549 44.9873 33.8895C44.7446 35.9242 44.5673 38.0522 44.4553 40.2735C46.5459 35.7189 47.5913 32.0602 47.5913 29.2975C47.5913 28.5882 47.5259 28.0375 47.3953 27.6455C47.2833 27.2535 47.1433 27.0575 46.9753 27.0575ZM38.9113 47.9455C39.2659 47.9455 39.6206 47.8055 39.9753 47.5255C40.3299 47.2269 40.7779 46.6855 41.3193 45.9015C41.1326 44.8935 41.0393 43.7642 41.0393 42.5135C41.0393 42.0655 41.0579 41.3375 41.0953 40.3295C40.0686 40.6469 39.2099 41.3375 38.5193 42.4015C37.8473 43.4469 37.5113 44.6135 37.5113 45.9015C37.5113 47.2642 37.9779 47.9455 38.9113 47.9455ZM61.2734 44.3895C61.5161 44.3895 61.7027 44.5015 61.8334 44.7255C61.9827 44.9495 62.0574 45.2575 62.0574 45.6495C62.0574 46.3962 61.8801 46.9749 61.5254 47.3855C60.7227 48.3749 59.8454 49.1869 58.8934 49.8215C57.9414 50.4562 56.8494 50.7735 55.6174 50.7735C51.8094 50.7735 49.9054 48.0949 49.9054 42.7375C49.9054 41.9162 49.9334 41.0855 49.9894 40.2455H48.8974C48.3374 40.2455 47.9547 40.1429 47.7494 39.9375C47.5627 39.7322 47.4694 39.4055 47.4694 38.9575C47.4694 37.9122 47.8894 37.3895 48.7294 37.3895H50.3254C50.6427 35.3362 51.1281 33.4602 51.7814 31.7615C52.4347 30.0629 53.2187 28.7095 54.1334 27.7015C55.0667 26.6935 56.0654 26.1895 57.1294 26.1895C57.9134 26.1895 58.5294 26.5349 58.9774 27.2255C59.4254 27.9162 59.6494 28.7842 59.6494 29.8295C59.6494 32.7229 58.4361 35.2429 56.0094 37.3895H59.1454C59.4441 37.3895 59.6587 37.4549 59.7894 37.5855C59.9201 37.7162 59.9854 37.9589 59.9854 38.3135C59.9854 39.6015 58.9307 40.2455 56.8214 40.2455H53.4054C53.3681 41.1789 53.3494 41.9069 53.3494 42.4295C53.3494 44.3709 53.5734 45.7335 54.0214 46.5175C54.4881 47.3015 55.2161 47.6935 56.2054 47.6935C57.0081 47.6935 57.7174 47.4509 58.3334 46.9655C58.9494 46.4802 59.6774 45.7522 60.5174 44.7815C60.7414 44.5202 60.9934 44.3895 61.2734 44.3895ZM56.3734 28.8775C56.0934 28.8775 55.7761 29.2322 55.4214 29.9415C55.0854 30.6322 54.7587 31.6029 54.4414 32.8535C54.1427 34.0855 53.8907 35.4575 53.6854 36.9695C54.7867 36.0175 55.6081 34.9535 56.1494 33.7775C56.7094 32.5829 56.9894 31.5002 56.9894 30.5295C56.9894 29.4282 56.7841 28.8775 56.3734 28.8775ZM63.4456 35.7375C62.6616 35.7375 62.0736 35.5602 61.6816 35.2055C61.2896 34.8322 61.0936 34.3189 61.0936 33.6655C61.0936 33.0122 61.3456 32.4709 61.8496 32.0415C62.3723 31.5935 63.0163 31.3695 63.7816 31.3695C64.4723 31.3695 65.0323 31.5375 65.4616 31.8735C65.8909 32.2095 66.1056 32.6855 66.1056 33.3015C66.1056 34.0482 65.8629 34.6455 65.3776 35.0935C64.8923 35.5229 64.2483 35.7375 63.4456 35.7375ZM63.2216 50.7735C62.0083 50.7735 61.1216 50.3442 60.5616 49.4855C60.0203 48.6269 59.7496 47.4882 59.7496 46.0695C59.7496 45.2295 59.8523 44.1562 60.0576 42.8495C60.2816 41.5242 60.5616 40.2922 60.8976 39.1535C61.0656 38.5562 61.2896 38.1455 61.5696 37.9215C61.8496 37.6975 62.2976 37.5855 62.9136 37.5855C63.8656 37.5855 64.3416 37.9029 64.3416 38.5375C64.3416 39.0042 64.1643 40.0869 63.8096 41.7855C63.3616 43.8389 63.1376 45.2295 63.1376 45.9575C63.1376 46.5175 63.2123 46.9469 63.3616 47.2455C63.5109 47.5442 63.7629 47.6935 64.1176 47.6935C64.4536 47.6935 64.8736 47.4602 65.3776 46.9935C65.8816 46.5269 66.5536 45.7895 67.3936 44.7815C67.6176 44.5202 67.8696 44.3895 68.1496 44.3895C68.3923 44.3895 68.5789 44.5015 68.7096 44.7255C68.8589 44.9495 68.9336 45.2575 68.9336 45.6495C68.9336 46.3962 68.7563 46.9749 68.4016 47.3855C66.5536 49.6442 64.8269 50.7735 63.2216 50.7735ZM68.6562 50.7735C67.9469 50.7735 67.4429 50.4002 67.1442 49.6535C66.8642 48.9069 66.7242 47.7122 66.7242 46.0695C66.7242 43.6429 67.0696 41.3375 67.7602 39.1535C67.9282 38.6122 68.1989 38.2202 68.5722 37.9775C68.9642 37.7162 69.5056 37.5855 70.1962 37.5855C70.5696 37.5855 70.8309 37.6322 70.9802 37.7255C71.1296 37.8189 71.2042 37.9962 71.2042 38.2575C71.2042 38.5562 71.0642 39.2282 70.7842 40.2735C70.5976 41.0202 70.4482 41.6735 70.3362 42.2335C70.2242 42.7749 70.1309 43.4562 70.0562 44.2775C70.5602 42.8215 71.1576 41.5895 71.8482 40.5815C72.5576 39.5735 73.2762 38.8269 74.0042 38.3415C74.7509 37.8375 75.4509 37.5855 76.1042 37.5855C76.7576 37.5855 77.2149 37.7349 77.4762 38.0335C77.7562 38.3322 77.8962 38.7895 77.8962 39.4055C77.8962 40.0029 77.7189 41.0855 77.3642 42.6535C77.2149 43.3255 77.1122 43.8295 77.0562 44.1655C77.9896 41.8695 79.0256 40.1989 80.1642 39.1535C81.3029 38.1082 82.3669 37.5855 83.3562 37.5855C84.5696 37.5855 85.1762 38.1922 85.1762 39.4055C85.1762 40.1335 84.9709 41.4495 84.5602 43.3535C84.2056 44.9775 84.0282 46.0509 84.0282 46.5735C84.0282 47.3202 84.2989 47.6935 84.8402 47.6935C85.2136 47.6935 85.6522 47.4695 86.1562 47.0215C86.6789 46.5549 87.3696 45.8082 88.2282 44.7815C88.4522 44.5202 88.7042 44.3895 88.9842 44.3895C89.2269 44.3895 89.4136 44.5015 89.5442 44.7255C89.6936 44.9495 89.7682 45.2575 89.7682 45.6495C89.7682 46.3962 89.5909 46.9749 89.2362 47.3855C88.4336 48.3749 87.5656 49.1869 86.6322 49.8215C85.7176 50.4562 84.6722 50.7735 83.4962 50.7735C82.5442 50.7735 81.8256 50.5029 81.3402 49.9615C80.8549 49.4015 80.6122 48.5989 80.6122 47.5535C80.6122 47.0309 80.7429 46.0975 81.0042 44.7535C81.2469 43.5775 81.3682 42.7655 81.3682 42.3175C81.3682 42.0189 81.2656 41.8695 81.0602 41.8695C80.8176 41.8695 80.4722 42.1869 80.0242 42.8215C79.5762 43.4375 79.1282 44.2589 78.6802 45.2855C78.2322 46.3122 77.8682 47.3949 77.5882 48.5335C77.3829 49.4295 77.1402 50.0269 76.8602 50.3255C76.5989 50.6242 76.1696 50.7735 75.5722 50.7735C74.9562 50.7735 74.4896 50.4842 74.1722 49.9055C73.8736 49.3082 73.7242 48.5895 73.7242 47.7495C73.7242 47.0402 73.8176 46.0135 74.0042 44.6695C74.1536 43.4749 74.2282 42.6909 74.2282 42.3175C74.2282 42.0189 74.1256 41.8695 73.9202 41.8695C73.6402 41.8695 73.2856 42.2055 72.8562 42.8775C72.4269 43.5495 72.0069 44.4082 71.5962 45.4535C71.2042 46.4989 70.8869 47.5255 70.6442 48.5335C70.4389 49.4109 70.1962 50.0082 69.9162 50.3255C69.6549 50.6242 69.2349 50.7735 68.6562 50.7735ZM97.5282 45.2295C97.7708 45.2295 97.9575 45.3415 98.0882 45.5655C98.2375 45.7895 98.3122 46.0975 98.3122 46.4895C98.3122 47.1615 98.1535 47.7402 97.8362 48.2255C97.3135 49.0282 96.6228 49.6535 95.7642 50.1015C94.9242 50.5495 93.9162 50.7735 92.7402 50.7735C90.9482 50.7735 89.5575 50.2415 88.5682 49.1775C87.5788 48.0949 87.0842 46.6389 87.0842 44.8095C87.0842 43.5215 87.3548 42.3269 87.8962 41.2255C88.4375 40.1055 89.1842 39.2189 90.1362 38.5655C91.1068 37.9122 92.1988 37.5855 93.4122 37.5855C94.4948 37.5855 95.3628 37.9122 96.0162 38.5655C96.6695 39.2002 96.9962 40.0682 96.9962 41.1695C96.9962 42.4575 96.5295 43.5682 95.5962 44.5015C94.6815 45.4162 93.1135 46.1442 90.8922 46.6855C91.3402 47.5442 92.0962 47.9735 93.1602 47.9735C93.9255 47.9735 94.5508 47.7962 95.0362 47.4415C95.5402 47.0869 96.1188 46.4895 96.7722 45.6495C96.9962 45.3695 97.2482 45.2295 97.5282 45.2295ZM92.9362 40.3295C92.2455 40.3295 91.6575 40.7309 91.1722 41.5335C90.7055 42.3362 90.4722 43.3069 90.4722 44.4455V44.5015C91.5735 44.2402 92.4415 43.8482 93.0762 43.3255C93.7108 42.8029 94.0282 42.1962 94.0282 41.5055C94.0282 41.1509 93.9255 40.8709 93.7202 40.6655C93.5335 40.4415 93.2722 40.3295 92.9362 40.3295ZM16.24 74.0375C16.4827 74.0375 16.6693 74.1589 16.8 74.4015C16.9307 74.6442 16.996 74.9522 16.996 75.3255C16.996 75.7922 16.9307 76.1562 16.8 76.4175C16.6693 76.6602 16.464 76.8282 16.184 76.9215C15.064 77.3135 13.832 77.5375 12.488 77.5935C12.1147 79.1429 11.4053 80.3935 10.36 81.3455C9.33333 82.2975 8.19467 82.7735 6.944 82.7735C5.05867 82.7735 3.68667 82.0549 2.828 80.6175C1.96933 79.1802 1.54 77.0989 1.54 74.3735C1.54 71.9655 1.83867 69.3522 2.436 66.5335C3.03333 63.6962 3.90133 61.2882 5.04 59.3095C6.19733 57.3122 7.56933 56.3135 9.156 56.3135C10.0147 56.3135 10.7053 56.6869 11.228 57.4335C11.7507 58.1615 12.012 59.1135 12.012 60.2895C12.012 61.8202 11.7227 63.3415 11.144 64.8535C10.5653 66.3655 9.604 67.9522 8.26 69.6135C9.51067 69.7069 10.528 70.2295 11.312 71.1815C12.096 72.1149 12.5627 73.2722 12.712 74.6535C13.5893 74.5975 14.6347 74.4109 15.848 74.0935C15.96 74.0562 16.0907 74.0375 16.24 74.0375ZM8.512 59.0855C8.13867 59.0855 7.728 59.6455 7.28 60.7655C6.85067 61.8669 6.44933 63.3695 6.076 65.2735C5.70267 67.1775 5.42267 69.2589 5.236 71.5175C6.468 69.2589 7.448 67.2709 8.176 65.5535C8.92267 63.8175 9.296 62.2775 9.296 60.9335C9.296 60.3362 9.22133 59.8789 9.072 59.5615C8.94133 59.2442 8.75467 59.0855 8.512 59.0855ZM7.056 79.8055C7.63467 79.8055 8.148 79.5629 8.596 79.0775C9.044 78.5922 9.34267 77.8922 9.492 76.9775C8.91333 76.5855 8.46533 76.0722 8.148 75.4375C7.84933 74.8029 7.7 74.1309 7.7 73.4215C7.7 73.1602 7.73733 72.8055 7.812 72.3575H7.728C6.96267 72.3575 6.31867 72.7402 5.796 73.5055C5.292 74.2522 5.04 75.2602 5.04 76.5295C5.04 77.5935 5.236 78.4055 5.628 78.9655C6.03867 79.5255 6.51467 79.8055 7.056 79.8055ZM28.8584 74.0375C29.101 74.0375 29.2877 74.1589 29.4184 74.4015C29.549 74.6442 29.6144 74.9522 29.6144 75.3255C29.6144 76.2215 29.3437 76.7535 28.8024 76.9215C27.6824 77.3135 26.4504 77.5375 25.1064 77.5935C24.7517 79.1615 24.0517 80.4215 23.0064 81.3735C21.961 82.3069 20.7757 82.7735 19.4504 82.7735C18.3304 82.7735 17.369 82.5029 16.5664 81.9615C15.7824 81.4202 15.185 80.7015 14.7744 79.8055C14.3637 78.9095 14.1584 77.9389 14.1584 76.8935C14.1584 75.4749 14.429 74.2149 14.9704 73.1135C15.5117 71.9935 16.2584 71.1255 17.2104 70.5095C18.1624 69.8749 19.217 69.5575 20.3744 69.5575C21.793 69.5575 22.9317 70.0522 23.7904 71.0415C24.6677 72.0122 25.181 73.2162 25.3304 74.6535C26.2077 74.5975 27.253 74.4109 28.4664 74.0935C28.6157 74.0562 28.7464 74.0375 28.8584 74.0375ZM19.6744 79.8055C20.2717 79.8055 20.785 79.5629 21.2144 79.0775C21.6624 78.5922 21.961 77.8922 22.1104 76.9775C21.5317 76.5855 21.0837 76.0722 20.7664 75.4375C20.4677 74.8029 20.3184 74.1309 20.3184 73.4215C20.3184 73.1229 20.3464 72.8242 20.4024 72.5255H20.2624C19.5157 72.5255 18.8904 72.8895 18.3864 73.6175C17.901 74.3269 17.6584 75.3349 17.6584 76.6415C17.6584 77.6682 17.8544 78.4522 18.2464 78.9935C18.657 79.5349 19.133 79.8055 19.6744 79.8055ZM41.4912 74.0375C41.7339 74.0375 41.9205 74.1589 42.0512 74.4015C42.1819 74.6442 42.2472 74.9522 42.2472 75.3255C42.2472 76.2215 41.9765 76.7535 41.4352 76.9215C40.3152 77.3135 39.0832 77.5375 37.7392 77.5935C37.3845 79.1615 36.6845 80.4215 35.6392 81.3735C34.5939 82.3069 33.4085 82.7735 32.0832 82.7735C30.9632 82.7735 30.0019 82.5029 29.1992 81.9615C28.4152 81.4202 27.8179 80.7015 27.4072 79.8055C26.9965 78.9095 26.7912 77.9389 26.7912 76.8935C26.7912 75.4749 27.0619 74.2149 27.6032 73.1135C28.1445 71.9935 28.8912 71.1255 29.8432 70.5095C30.7952 69.8749 31.8499 69.5575 33.0072 69.5575C34.4259 69.5575 35.5645 70.0522 36.4232 71.0415C37.3005 72.0122 37.8139 73.2162 37.9632 74.6535C38.8405 74.5975 39.8859 74.4109 41.0992 74.0935C41.2485 74.0562 41.3792 74.0375 41.4912 74.0375ZM32.3072 79.8055C32.9045 79.8055 33.4179 79.5629 33.8472 79.0775C34.2952 78.5922 34.5939 77.8922 34.7432 76.9775C34.1645 76.5855 33.7165 76.0722 33.3992 75.4375C33.1005 74.8029 32.9512 74.1309 32.9512 73.4215C32.9512 73.1229 32.9792 72.8242 33.0352 72.5255H32.8952C32.1485 72.5255 31.5232 72.8895 31.0192 73.6175C30.5339 74.3269 30.2912 75.3349 30.2912 76.6415C30.2912 77.6682 30.4872 78.4522 30.8792 78.9935C31.2899 79.5349 31.7659 79.8055 32.3072 79.8055ZM51.744 79.7215C52.5093 79.8709 52.892 80.2909 52.892 80.9815C52.892 81.4482 52.6773 81.8682 52.248 82.2415C51.8373 82.5962 51.24 82.7735 50.456 82.7735C49.112 82.7735 48.0107 82.3629 47.152 81.5415C46.312 80.7015 45.892 79.6095 45.892 78.2655C45.892 77.5375 46.2653 77.0149 47.012 76.6975C47.8333 76.3429 48.4213 75.9695 48.776 75.5775C49.1307 75.1669 49.308 74.6722 49.308 74.0935C49.308 73.7575 49.2333 73.5055 49.084 73.3375C48.9533 73.1695 48.7853 73.0855 48.58 73.0855C48.076 73.0855 47.516 73.4495 46.9 74.1775C46.3027 74.9055 45.7427 75.8482 45.22 77.0055C44.6973 78.1442 44.2867 79.3202 43.988 80.5335C43.7827 81.4109 43.54 82.0082 43.26 82.3255C42.9987 82.6242 42.5787 82.7735 42 82.7735C41.4213 82.7735 40.992 82.5682 40.712 82.1575C40.4507 81.7282 40.2733 81.0749 40.18 80.1975C40.0867 79.3202 40.04 78.0322 40.04 76.3335C40.04 73.4589 40.3293 70.4629 40.908 67.3455C41.5053 64.2282 42.3733 61.6149 43.512 59.5055C44.6693 57.3775 46.0507 56.3135 47.656 56.3135C48.5147 56.3135 49.2053 56.6869 49.728 57.4335C50.2693 58.1615 50.54 59.1135 50.54 60.2895C50.54 62.1749 49.9893 64.1349 48.888 66.1695C47.7867 68.1855 45.9947 70.5469 43.512 73.2535C43.456 74.2242 43.428 75.2229 43.428 76.2495C44.324 73.9162 45.3507 72.2269 46.508 71.1815C47.6653 70.1175 48.748 69.5855 49.756 69.5855C50.6893 69.5855 51.436 69.9029 51.996 70.5375C52.5747 71.1722 52.864 71.9562 52.864 72.8895C52.864 73.9162 52.6027 74.8589 52.08 75.7175C51.5573 76.5762 50.6613 77.3415 49.392 78.0135C49.504 78.5735 49.728 78.9655 50.064 79.1895C50.4187 79.3949 50.9787 79.5722 51.744 79.7215ZM47.068 59.0855C46.732 59.0855 46.3587 59.5709 45.948 60.5415C45.5373 61.4935 45.136 62.7909 44.744 64.4335C44.3707 66.0575 44.0627 67.8309 43.82 69.7535C44.9773 68.3909 45.9293 66.9069 46.676 65.3015C47.4413 63.6962 47.824 62.2402 47.824 60.9335C47.824 60.3362 47.7587 59.8789 47.628 59.5615C47.4973 59.2442 47.3107 59.0855 47.068 59.0855Z" fill="white"/>
</svg>
